<svg width="512" height="512" xmlns="http://www.w3.org/2000/svg">
 <title/>

 <g>
  <title>background</title>
  <rect fill="none" id="canvas_background" height="402" width="582" y="-1" x="-1"/>
 </g>
 <g>
  <title>Layer 1</title>
  <path stroke="#ffffff" stroke-width="6" fill="#ffffff" id="svg_1" d="m101.108519,337.716297a15,15 0 0 1 -13.42,-8.28a187.41,187.41 0 0 1 35.11,-216.86c73.18,-73.19 192.26,-73.19 265.44,0a15,15 0 0 1 -21.21,21.21c-61.51,-61.49 -161.51,-61.49 -223.02,0a157.45,157.45 0 0 0 -29.49,182.2a15,15 0 0 1 -13.4,21.73l-0.01,0z"/>
  <path stroke="#ffffff" stroke-width="6" fill="#ffffff" id="svg_2" d="m258.481481,438.091481a187.1,187.1 0 0 1 -132.72,-54.88a15,15 0 1 1 21.21,-21.22c61.51,61.49 161.51,61.49 223.02,0a157.45,157.45 0 0 0 29.49,-182.2a15,15 0 0 1 26.82,-13.45a187.62,187.62 0 0 1 -167.82,271.75z"/>
  <path stroke="#ffffff" stroke-width="6" fill="#ffffff" id="svg_3" d="m313.728519,146.768519a15,15 0 0 1 -1.47,-29.92l47.43,-4.73l-9.51,-47.67a15,15 0 0 1 29.42,-5.86l12.74,63.93a15,15 0 0 1 -13.22,17.86l-63.88,6.37c-0.51,0 -1.01,0.02 -1.51,0.02z"/>
  <path stroke="#ffffff" stroke-width="6" fill="#ffffff" id="svg_4" d="m149.832222,451.481481a15,15 0 0 1 -14.7,-12.07l-12.74,-63.88a15,15 0 0 1 13.23,-17.86l63.88,-6.37a15,15 0 0 1 3,29.85l-47.43,4.73l9.5,47.67a15,15 0 0 1 -14.74,17.93z"/>
 </g>
</svg>